<svg width="474" height="474" viewBox="0 0 474 474" fill="none" xmlns="http://www.w3.org/2000/svg">
<g clip-path="url(#clip0_3183_283)">
<path d="M236.966 473.932C367.839 473.932 473.932 367.839 473.932 236.966C473.932 106.093 367.839 0 236.966 0C106.093 0 0 106.093 0 236.966C0 367.839 106.093 473.932 236.966 473.932Z" fill="#EFF8ED"/>
<path d="M354.154 359.291C354.154 362.909 351.224 365.832 347.617 365.832H127.908C124.301 365.832 121.371 362.91 121.371 359.291V101.937C121.371 98.326 124.301 95.396 127.908 95.396H347.617C351.224 95.396 354.154 98.326 354.154 101.937V359.291Z" fill="#327477"/>
<path d="M354.153 376.967C354.153 380.578 351.223 383.504 347.616 383.504H140.281V140.555H347.612C351.219 140.555 354.149 143.485 354.149 147.096V376.967H354.153Z" fill="#3B7F89"/>
<path d="M141.61 137.158H137.633V383.508H141.61V137.158Z" fill="#4699A1"/>
<path d="M138.291 95.396H127.908C124.301 95.396 121.371 98.326 121.371 101.937V376.968C121.371 380.579 124.301 383.505 127.908 383.505H138.291V95.396Z" fill="#2A646E"/>
<path d="M342.37 140.473H143.705C136.932 140.473 131.443 134.976 131.443 128.204V120.148C131.443 113.375 136.932 107.886 143.705 107.886H330.108C336.881 107.886 342.37 113.379 342.37 120.148V140.473Z" fill="#E9E9EA"/>
<path d="M284.46 251.574H210.957C202.28 251.574 195.223 244.513 195.223 235.84V197.693C195.223 189.023 202.28 181.963 210.957 181.963H284.46C293.133 181.963 300.194 189.024 300.194 197.693V235.836C300.19 244.513 293.133 251.574 284.46 251.574Z" fill="#2A646E"/>
<path d="M309.682 290.84C309.682 293.661 307.486 295.951 304.773 295.951H188.442C185.729 295.951 183.529 293.661 183.529 290.84C183.529 288.011 185.729 285.725 188.442 285.725H304.773C307.489 285.725 309.682 288.011 309.682 290.84Z" fill="#2A646E"/>
<path d="M309.682 309.81C309.682 312.631 307.486 314.921 304.773 314.921H188.442C185.729 314.921 183.529 312.631 183.529 309.81C183.529 306.989 185.729 304.699 188.442 304.699H304.773C307.489 304.699 309.682 306.989 309.682 309.81Z" fill="#2A646E"/>
<path d="M289.017 338.031C289.017 339.924 287.535 341.466 285.713 341.466H207.503C205.677 341.466 204.199 339.924 204.199 338.031C204.199 336.134 205.681 334.592 207.503 334.592H285.713C287.539 334.592 289.017 336.134 289.017 338.031Z" fill="#2A646E"/>
</g>
<defs>
<clipPath id="clip0_3183_283">
<rect width="473.931" height="473.931" fill="white"/>
</clipPath>
</defs>
</svg>
