<svg width="25" height="26" viewBox="0 0 25 26" fill="none" xmlns="http://www.w3.org/2000/svg">
<g clip-path="url(#clip0_2636_3071)">
<path fill-rule="evenodd" clip-rule="evenodd" d="M-0.41875 5.71667C-0.25492 4.9804 0.147815 4.32302 0.723498 3.85218C1.29918 3.38134 2.01369 3.12495 2.75 3.125H22.25C22.9863 3.12495 23.7008 3.38134 24.2765 3.85218C24.8522 4.32302 25.2549 4.9804 25.4187 5.71667L12.5 13.815L-0.41875 5.71667ZM-0.5 7.62V19.46L8.92988 13.53L-0.5 7.62ZM10.4866 14.5083L-0.189625 21.22C0.0741557 21.7905 0.490481 22.2724 1.0109 22.6096C1.53131 22.9469 2.13441 23.1256 2.75 23.125H22.25C22.8655 23.1251 23.4684 22.946 23.9885 22.6085C24.5086 22.2709 24.9246 21.7889 25.188 21.2183L14.5118 14.5067L12.5 15.7683L10.4866 14.5067V14.5083ZM16.0701 13.5317L25.5 19.46V7.62L16.0701 13.53V13.5317Z" fill="#96BB7C"/>
</g>
<defs>
<clipPath id="clip0_2636_3071">
<rect width="24" height="26" fill="white" transform="translate(0.5)"/>
</clipPath>
</defs>
</svg>
