<svg width="72" height="72" viewBox="0 0 72 72" fill="none" xmlns="http://www.w3.org/2000/svg">
<g clip-path="url(#clip0_2645_702)">
<g clip-path="url(#clip1_2645_702)">
<path d="M40.5332 24.4541C43.0185 24.4541 45.0332 22.4394 45.0332 19.9541C45.0332 17.4688 43.0185 15.4541 40.5332 15.4541C38.0479 15.4541 36.0332 17.4688 36.0332 19.9541C36.0332 22.4394 38.0479 24.4541 40.5332 24.4541Z" fill="#F68820"/>
</g>
<path d="M64.8332 65.8541L45.0332 39.4537V20.5166C45.0332 19.2746 44.0252 18.2666 42.7832 18.2666C41.5412 18.2666 40.5332 19.2746 40.5332 20.5166V39.4537L20.7332 65.8541C19.9874 66.8486 20.1899 68.2594 21.1832 69.0041C21.5882 69.309 22.0619 69.4541 22.5321 69.4541C23.2161 69.4541 23.8911 69.1436 24.3344 68.5541L40.5344 46.9541V67.2041C40.5344 68.4461 41.5424 69.4541 42.7844 69.4541C44.0264 69.4541 45.0344 68.4461 45.0344 67.2041V46.9541L61.2344 68.5541C61.6765 69.1425 62.3526 69.4541 63.0366 69.4541C63.5057 69.4541 63.9805 69.3079 64.3855 69.0041C65.3766 68.2594 65.578 66.8486 64.8332 65.8541Z" fill="#55525B"/>
<g clip-path="url(#clip2_2645_702)">
<path d="M36.0301 53.7042C35.0907 53.7042 34.1435 53.4106 33.3335 52.8042C31.3445 51.3125 30.9428 48.4921 32.4335 46.5031L39.1835 37.5031C40.6763 35.5152 43.4956 35.1147 45.4835 36.6031C47.4725 38.0948 47.8741 40.9152 46.3835 42.9042L39.6335 51.9042C38.7492 53.0832 37.3981 53.7042 36.0301 53.7042Z" fill="#5C76B2"/>
</g>
<g clip-path="url(#clip3_2645_702)">
<path d="M49.5365 53.7043C48.1685 53.7043 46.8174 53.0833 45.9331 51.9044L39.1831 42.9044C37.6925 40.9154 38.0953 38.0961 40.0831 36.6032C42.0699 35.1137 44.8903 35.5131 46.3831 37.5032L53.1331 46.5032C54.6238 48.4922 54.221 51.3115 52.2331 52.8043C51.4231 53.4118 50.4759 53.7043 49.5365 53.7043Z" fill="#5C76B2"/>
</g>
<g clip-path="url(#clip4_2645_702)">
<g clip-path="url(#clip5_2645_702)">
<path d="M63.7962 13.4958L59.3648 12.7139C55.6939 12.067 52.1929 14.5184 51.5449 18.1893C50.8981 21.8601 53.3494 25.3611 57.0203 26.0091L61.4517 26.791C65.1226 27.4379 68.6236 24.9865 69.2716 21.3156C69.9185 17.6436 67.4671 14.1426 63.7962 13.4958Z" fill="#F68820"/>
</g>
<g clip-path="url(#clip6_2645_702)">
<path d="M58.1914 26.1113C61.9193 26.1113 64.9414 23.0892 64.9414 19.3613C64.9414 15.6334 61.9193 12.6113 58.1914 12.6113C54.4635 12.6113 51.4414 15.6334 51.4414 19.3613C51.4414 23.0892 54.4635 26.1113 58.1914 26.1113Z" fill="#FBBE18"/>
</g>
<g clip-path="url(#clip7_2645_702)">
<path d="M57.4108 23.7939L41.9004 21.059L43.463 12.1963L58.9734 14.9312C61.4214 15.3632 63.0549 17.6964 62.624 20.1444C62.192 22.5902 59.8588 24.2248 57.4108 23.7939Z" fill="#6FA4D8"/>
</g>
<g clip-path="url(#clip8_2645_702)">
<path d="M41.9004 21.0578L57.4108 23.7927C59.8588 24.2247 62.192 22.5901 62.624 20.1421L42.6823 16.6265L41.9004 21.0578Z" fill="#5C76B2"/>
</g>
<g clip-path="url(#clip9_2645_702)">
<path d="M37.0768 22.4925L21.5664 19.7577L23.9109 6.4624L39.4213 9.19728C43.0922 9.84415 45.5435 13.3452 44.8967 17.0172C44.2498 20.6892 40.7488 23.1405 37.0768 22.4925Z" fill="#6FA4D8"/>
</g>
<g clip-path="url(#clip10_2645_702)">
<path d="M21.5664 19.7575L37.0768 22.4924C40.7477 23.1392 44.2487 20.6879 44.8967 17.017L22.7387 13.1099L21.5664 19.7575Z" fill="#5C76B2"/>
</g>
<g clip-path="url(#clip11_2645_702)">
<path d="M20.2603 1.25006L15.8289 0.468182C9.71007 -0.610693 3.87582 3.47531 2.79582 9.59418C1.71694 15.7131 5.80294 21.5473 11.9218 22.6273L16.3532 23.4092C22.4721 24.4881 28.3074 20.4021 29.3863 14.2832C30.4652 8.16318 26.3792 2.32893 20.2603 1.25006Z" fill="#F68820"/>
</g>
<g clip-path="url(#clip12_2645_702)">
<path d="M13.875 22.7974C20.0882 22.7974 25.125 17.7606 25.125 11.5474C25.125 5.33416 20.0882 0.297363 13.875 0.297363C7.6618 0.297363 2.625 5.33416 2.625 11.5474C2.625 17.7606 7.6618 22.7974 13.875 22.7974Z" fill="#FBBE18"/>
</g>
<g clip-path="url(#clip13_2645_702)">
<path d="M13.875 20.5474C18.8456 20.5474 22.875 16.5179 22.875 11.5474C22.875 6.5768 18.8456 2.54736 13.875 2.54736C8.90444 2.54736 4.875 6.5768 4.875 11.5474C4.875 16.5179 8.90444 20.5474 13.875 20.5474Z" fill="#55525B"/>
</g>
<g clip-path="url(#clip14_2645_702)">
<path d="M12.7474 2.61719C9.80889 2.98731 7.22139 4.79856 5.86914 7.43331C6.29102 9.09832 7.64327 10.4483 9.44439 10.7667C11.8924 11.1987 14.2256 9.56407 14.6576 7.11606C14.9738 5.31494 14.1683 3.58244 12.7474 2.61719Z" fill="#B3B4B6"/>
</g>
</g>
<g clip-path="url(#clip15_2645_702)">
<path d="M45.0332 24.4541C47.5185 24.4541 49.5332 22.4394 49.5332 19.9541C49.5332 17.4688 47.5185 15.4541 45.0332 15.4541C42.5479 15.4541 40.5332 17.4688 40.5332 19.9541C40.5332 22.4394 42.5479 24.4541 45.0332 24.4541Z" fill="#FBBE18"/>
</g>
<g clip-path="url(#clip16_2645_702)">
<path d="M45.0332 22.2041C46.2758 22.2041 47.2832 21.1967 47.2832 19.9541C47.2832 18.7115 46.2758 17.7041 45.0332 17.7041C43.7906 17.7041 42.7832 18.7115 42.7832 19.9541C42.7832 21.1967 43.7906 22.2041 45.0332 22.2041Z" fill="#55525B"/>
</g>
<g clip-path="url(#clip17_2645_702)">
<path d="M22.5332 71.7041C25.0185 71.7041 27.0332 69.6894 27.0332 67.2041C27.0332 64.7188 25.0185 62.7041 22.5332 62.7041C20.0479 62.7041 18.0332 64.7188 18.0332 67.2041C18.0332 69.6894 20.0479 71.7041 22.5332 71.7041Z" fill="#F68820"/>
</g>
<g clip-path="url(#clip18_2645_702)">
<path d="M63.0332 71.7041C65.5185 71.7041 67.5332 69.6894 67.5332 67.2041C67.5332 64.7188 65.5185 62.7041 63.0332 62.7041C60.5479 62.7041 58.5332 64.7188 58.5332 67.2041C58.5332 69.6894 60.5479 71.7041 63.0332 71.7041Z" fill="#F68820"/>
</g>
<g clip-path="url(#clip19_2645_702)">
<path d="M42.7832 71.7041C45.2685 71.7041 47.2832 69.6894 47.2832 67.2041C47.2832 64.7188 45.2685 62.7041 42.7832 62.7041C40.2979 62.7041 38.2832 64.7188 38.2832 67.2041C38.2832 69.6894 40.2979 71.7041 42.7832 71.7041Z" fill="#F68820"/>
</g>
<g clip-path="url(#clip20_2645_702)">
<path d="M42.7832 53.7041C40.2981 53.7041 38.2832 51.6892 38.2832 49.2041V40.2041C38.2832 37.719 40.2981 35.7041 42.7832 35.7041C45.2683 35.7041 47.2832 37.719 47.2832 40.2041V49.2041C47.2832 51.6892 45.2683 53.7041 42.7832 53.7041Z" fill="#F68820"/>
</g>
<g clip-path="url(#clip21_2645_702)">
<path d="M42.7832 53.7041C40.2981 53.7041 38.2832 51.6892 38.2832 49.2041V40.2041C38.2832 37.719 40.2981 35.7041 42.7832 35.7041C45.2683 35.7041 47.2832 37.719 47.2832 40.2041V49.2041C47.2832 51.6892 45.2683 53.7041 42.7832 53.7041Z" fill="#6FA4D8"/>
</g>
</g>
<defs>
<clipPath id="clip0_2645_702">
<rect width="66.7514" height="71.4089" fill="white" transform="translate(2.62305 0.29541)"/>
</clipPath>
<clipPath id="clip1_2645_702">
<rect width="9" height="8.99999" fill="white" transform="translate(36.0332 15.4541)"/>
</clipPath>
<clipPath id="clip2_2645_702">
<rect width="15.7505" height="18.0001" fill="white" transform="translate(31.5332 35.7041)"/>
</clipPath>
<clipPath id="clip3_2645_702">
<rect width="15.7499" height="18.0012" fill="white" transform="translate(38.2832 35.7031)"/>
</clipPath>
<clipPath id="clip4_2645_702">
<rect width="66.7514" height="26.5991" fill="white" transform="translate(2.62305 0.29541)"/>
</clipPath>
<clipPath id="clip5_2645_702">
<rect width="17.9337" height="14.2842" fill="white" transform="translate(51.4414 12.6104)"/>
</clipPath>
<clipPath id="clip6_2645_702">
<rect width="13.5" height="13.5" fill="white" transform="translate(51.4414 12.6113)"/>
</clipPath>
<clipPath id="clip7_2645_702">
<rect width="20.7926" height="11.6665" fill="white" transform="translate(41.9004 12.1963)"/>
</clipPath>
<clipPath id="clip8_2645_702">
<rect width="20.7236" height="7.23548" fill="white" transform="translate(41.9004 16.6265)"/>
</clipPath>
<clipPath id="clip9_2645_702">
<rect width="23.4338" height="16.134" fill="white" transform="translate(21.5664 6.4624)"/>
</clipPath>
<clipPath id="clip10_2645_702">
<rect width="23.3303" height="9.48603" fill="white" transform="translate(21.5664 13.1099)"/>
</clipPath>
<clipPath id="clip11_2645_702">
<rect width="26.936" height="23.2865" fill="white" transform="translate(2.62305 0.29541)"/>
</clipPath>
<clipPath id="clip12_2645_702">
<rect width="22.5" height="22.5" fill="white" transform="translate(2.625 0.297363)"/>
</clipPath>
<clipPath id="clip13_2645_702">
<rect width="18" height="18" fill="white" transform="translate(4.875 2.54736)"/>
</clipPath>
<clipPath id="clip14_2645_702">
<rect width="8.85681" height="8.21873" fill="white" transform="translate(5.86914 2.61719)"/>
</clipPath>
<clipPath id="clip15_2645_702">
<rect width="9" height="8.99999" fill="white" transform="translate(40.5332 15.4541)"/>
</clipPath>
<clipPath id="clip16_2645_702">
<rect width="4.5" height="4.49999" fill="white" transform="translate(42.7832 17.7041)"/>
</clipPath>
<clipPath id="clip17_2645_702">
<rect width="9" height="9" fill="white" transform="translate(18.0332 62.7041)"/>
</clipPath>
<clipPath id="clip18_2645_702">
<rect width="9" height="9" fill="white" transform="translate(58.5332 62.7041)"/>
</clipPath>
<clipPath id="clip19_2645_702">
<rect width="9" height="9" fill="white" transform="translate(38.2832 62.7041)"/>
</clipPath>
<clipPath id="clip20_2645_702">
<rect width="9" height="18" fill="white" transform="translate(38.2832 35.7041)"/>
</clipPath>
<clipPath id="clip21_2645_702">
<rect width="9" height="18" fill="white" transform="translate(38.2832 35.7041)"/>
</clipPath>
</defs>
</svg>
