<svg width="72" height="72" viewBox="0 0 72 72" fill="none" xmlns="http://www.w3.org/2000/svg">
<g clip-path="url(#clip0_2645_747)">
<g clip-path="url(#clip1_2645_747)">
<path d="M42.7501 43.875V32.625H29.2501V43.875L13.0501 65.475C11.3817 67.7003 12.9691 70.875 15.7501 70.875H56.2501C59.0311 70.875 60.6185 67.7003 58.9501 65.475L42.7501 43.875Z" fill="#6FA4D8"/>
</g>
<g clip-path="url(#clip2_2645_747)">
<path d="M58.95 65.475L42.75 43.875V32.625H36H29.25V35.4375H34.3125C35.244 35.4375 36 36.1935 36 37.125V43.875L45 70.875H56.25C59.031 70.875 60.6184 67.7003 58.95 65.475Z" fill="#5C76B2"/>
</g>
<g clip-path="url(#clip3_2645_747)">
<path d="M42.75 32.625H29.25C28.0069 32.625 27 31.6181 27 30.375C27 29.1319 28.0069 28.125 29.25 28.125H42.75C43.9931 28.125 45 29.1319 45 30.375C45 31.6181 43.9931 32.625 42.75 32.625Z" fill="#6FA4D8"/>
</g>
<g clip-path="url(#clip4_2645_747)">
<path d="M42.75 28.125H36C37.2431 28.125 38.25 29.1319 38.25 30.375C38.25 31.6181 37.2431 32.625 36 32.625H42.75C43.9931 32.625 45 31.6181 45 30.375C45 29.1319 43.9931 28.125 42.75 28.125Z" fill="#5C76B2"/>
</g>
<g clip-path="url(#clip5_2645_747)">
<path d="M54 66.3749H18L26.4375 55.1249L26.4386 55.1238C28.8281 51.9356 33.6105 51.9345 36.0011 55.1216L36.0022 55.1227C38.3929 58.3087 43.1707 58.3098 45.5625 55.1249L54 66.3749Z" fill="#F68820"/>
</g>
<g clip-path="url(#clip6_2645_747)">
<path d="M45.5625 55.1249L45.5614 55.1238C43.1719 51.9356 38.3895 51.9345 35.9989 55.1216L35.9977 55.1227C33.6071 58.3087 28.8293 58.3098 26.4375 55.1249L18 66.3749H54L45.5625 55.1249Z" fill="#FBBE18"/>
</g>
<g clip-path="url(#clip7_2645_747)">
<path d="M45.5626 55.125L45.5615 55.1239C43.9753 53.0066 41.336 52.3035 39.041 52.9976L43.5005 66.375H54.0001L45.5626 55.125Z" fill="#F68820"/>
</g>
<g clip-path="url(#clip8_2645_747)">
<path d="M32.0625 62.4375C32.9945 62.4375 33.75 61.682 33.75 60.75C33.75 59.818 32.9945 59.0625 32.0625 59.0625C31.1305 59.0625 30.375 59.818 30.375 60.75C30.375 61.682 31.1305 62.4375 32.0625 62.4375Z" fill="#F68820"/>
</g>
<g clip-path="url(#clip9_2645_747)">
<path d="M28.125 64.6875C28.7463 64.6875 29.25 64.1838 29.25 63.5625C29.25 62.9412 28.7463 62.4375 28.125 62.4375C27.5037 62.4375 27 62.9412 27 63.5625C27 64.1838 27.5037 64.6875 28.125 64.6875Z" fill="#F68820"/>
</g>
<g clip-path="url(#clip10_2645_747)">
<path d="M30.375 21.375C33.4816 21.375 36 18.8566 36 15.75C36 12.6434 33.4816 10.125 30.375 10.125C27.2684 10.125 24.75 12.6434 24.75 15.75C24.75 18.8566 27.2684 21.375 30.375 21.375Z" fill="#F68820"/>
</g>
<g clip-path="url(#clip11_2645_747)">
<path d="M28.6875 15.75C29.6195 15.75 30.375 14.9945 30.375 14.0625C30.375 13.1305 29.6195 12.375 28.6875 12.375C27.7555 12.375 27 13.1305 27 14.0625C27 14.9945 27.7555 15.75 28.6875 15.75Z" fill="#FBBE18"/>
</g>
<g clip-path="url(#clip12_2645_747)">
<path d="M41.625 25.875C43.489 25.875 45 24.364 45 22.5C45 20.636 43.489 19.125 41.625 19.125C39.761 19.125 38.25 20.636 38.25 22.5C38.25 24.364 39.761 25.875 41.625 25.875Z" fill="#F68820"/>
</g>
<g clip-path="url(#clip13_2645_747)">
<path d="M40.5 22.5C41.1213 22.5 41.625 21.9963 41.625 21.375C41.625 20.7537 41.1213 20.25 40.5 20.25C39.8787 20.25 39.375 20.7537 39.375 21.375C39.375 21.9963 39.8787 22.5 40.5 22.5Z" fill="#FBBE18"/>
</g>
<g clip-path="url(#clip14_2645_747)">
<path d="M46.4062 2.53125C46.4062 3.3075 45 5.625 45 5.625C45 5.625 43.5938 3.3075 43.5938 2.53125C43.5938 1.755 44.2237 1.125 45 1.125C45.7762 1.125 46.4062 1.755 46.4062 2.53125Z" fill="#F68820"/>
</g>
<g clip-path="url(#clip15_2645_747)">
<path d="M41.0757 3.98483C41.7484 4.37408 43.0523 6.75008 43.0523 6.75008C43.0523 6.75008 40.3422 6.80971 39.6694 6.42158C38.9978 6.03233 38.7672 5.17283 39.1553 4.50008C39.5434 3.82733 40.404 3.59671 41.0757 3.98483Z" fill="#F68820"/>
</g>
<g clip-path="url(#clip16_2645_747)">
<path d="M39.6678 9.32838C40.3405 8.94025 43.0507 8.99988 43.0507 8.99988C43.0507 8.99988 41.7468 11.3759 41.074 11.7651C40.4013 12.1533 39.5418 11.9226 39.1525 11.2499C38.7655 10.5771 38.9962 9.71763 39.6678 9.32838Z" fill="#F68820"/>
</g>
<g clip-path="url(#clip17_2645_747)">
<path d="M43.5938 13.2188C43.5938 12.4425 45 10.125 45 10.125C45 10.125 46.4062 12.4425 46.4062 13.2188C46.4062 13.995 45.7762 14.625 45 14.625C44.2237 14.625 43.5938 13.995 43.5938 13.2188Z" fill="#F68820"/>
</g>
<g clip-path="url(#clip18_2645_747)">
<path d="M48.9258 11.7651C48.2531 11.3759 46.9492 8.99988 46.9492 8.99988C46.9492 8.99988 49.6593 8.94025 50.3321 9.32838C51.0049 9.7165 51.2355 10.5771 50.8474 11.2499C50.4581 11.9226 49.5975 12.1533 48.9258 11.7651Z" fill="#F68820"/>
</g>
<g clip-path="url(#clip19_2645_747)">
<path d="M50.3321 6.4216C49.6593 6.80972 46.9492 6.7501 46.9492 6.7501C46.9492 6.7501 48.2531 4.3741 48.9258 3.98485C49.5986 3.5956 50.4581 3.82735 50.8462 4.5001C51.2343 5.17285 51.0037 6.03235 50.3321 6.4216Z" fill="#F68820"/>
</g>
</g>
<defs>
<clipPath id="clip0_2645_747">
<rect width="47.2619" height="69.75" fill="white" transform="translate(12.3691 1.125)"/>
</clipPath>
<clipPath id="clip1_2645_747">
<rect width="47.2619" height="38.25" fill="white" transform="translate(12.3691 32.625)"/>
</clipPath>
<clipPath id="clip2_2645_747">
<rect width="30.381" height="38.25" fill="white" transform="translate(29.25 32.625)"/>
</clipPath>
<clipPath id="clip3_2645_747">
<rect width="18" height="4.5" fill="white" transform="translate(27 28.125)"/>
</clipPath>
<clipPath id="clip4_2645_747">
<rect width="9" height="4.5" fill="white" transform="translate(36 28.125)"/>
</clipPath>
<clipPath id="clip5_2645_747">
<rect width="36" height="13.643" fill="white" transform="translate(18 52.7319)"/>
</clipPath>
<clipPath id="clip6_2645_747">
<rect width="36" height="13.643" fill="white" transform="translate(18 52.7319)"/>
</clipPath>
<clipPath id="clip7_2645_747">
<rect width="14.9591" height="13.6357" fill="white" transform="translate(39.041 52.7393)"/>
</clipPath>
<clipPath id="clip8_2645_747">
<rect width="3.375" height="3.375" fill="white" transform="translate(30.375 59.0625)"/>
</clipPath>
<clipPath id="clip9_2645_747">
<rect width="2.25" height="2.25" fill="white" transform="translate(27 62.4375)"/>
</clipPath>
<clipPath id="clip10_2645_747">
<rect width="11.25" height="11.25" fill="white" transform="translate(24.75 10.125)"/>
</clipPath>
<clipPath id="clip11_2645_747">
<rect width="3.375" height="3.375" fill="white" transform="translate(27 12.375)"/>
</clipPath>
<clipPath id="clip12_2645_747">
<rect width="6.75" height="6.75" fill="white" transform="translate(38.25 19.125)"/>
</clipPath>
<clipPath id="clip13_2645_747">
<rect width="2.25" height="2.25" fill="white" transform="translate(39.375 20.25)"/>
</clipPath>
<clipPath id="clip14_2645_747">
<rect width="2.8125" height="4.5" fill="white" transform="translate(43.5938 1.125)"/>
</clipPath>
<clipPath id="clip15_2645_747">
<rect width="4.08548" height="2.95699" fill="white" transform="translate(38.9668 3.79639)"/>
</clipPath>
<clipPath id="clip16_2645_747">
<rect width="4.08582" height="2.95699" fill="white" transform="translate(38.9648 8.99658)"/>
</clipPath>
<clipPath id="clip17_2645_747">
<rect width="2.8125" height="4.5" fill="white" transform="translate(43.5938 10.125)"/>
</clipPath>
<clipPath id="clip18_2645_747">
<rect width="4.08658" height="2.95699" fill="white" transform="translate(46.9492 8.99658)"/>
</clipPath>
<clipPath id="clip19_2645_747">
<rect width="4.08548" height="2.95749" fill="white" transform="translate(46.9492 3.7959)"/>
</clipPath>
</defs>
</svg>
