<svg width="141" height="40" viewBox="0 0 141 40" fill="none" xmlns="http://www.w3.org/2000/svg">
<g clip-path="url(#clip0_2636_2811)">
<path d="M0.5 20C0.5 8.95431 9.45431 0 20.5 0C31.5457 0 40.5 8.95431 40.5 20C40.5 31.0457 31.5457 40 20.5 40C9.45431 40 0.5 31.0457 0.5 20Z" fill="white"/>
<path d="M20.5002 15.9532L19.1358 14.5566L19.1352 14.556C18.7873 14.2018 18.3723 13.9204 17.9144 13.7283C17.4566 13.5362 16.965 13.4372 16.4685 13.4372C15.972 13.4372 15.4804 13.5362 15.0225 13.7283C14.5647 13.9203 14.1498 14.2017 13.8019 14.5559C13.0879 15.2808 12.6877 16.2575 12.6877 17.275C12.6877 18.2926 13.088 19.2693 13.8021 19.9943L13.8024 19.9946L20.2774 26.5508L20.4997 26.776L20.7221 26.5508L27.1971 19.9946L27.1974 19.9943C27.9115 19.2693 28.3117 18.2926 28.3117 17.275C28.3117 16.2575 27.9116 15.2809 27.1976 14.5559C26.8499 14.2015 26.435 13.92 25.9771 13.7279C25.5193 13.5359 25.0278 13.4372 24.5314 13.4375C24.5312 13.4375 24.531 13.4375 24.5307 13.4375L24.531 13.75M20.5002 15.9532L21.8571 14.5695L21.8579 14.5687L22.081 14.7875M20.5002 15.9532L21.8563 14.5704M20.5002 15.9532L21.8563 14.5704M24.531 13.75C24.0738 13.7493 23.6213 13.8409 23.2003 14.0192C22.7793 14.1974 22.3986 14.4587 22.081 14.7875M24.531 13.75C24.986 13.7496 25.4366 13.8401 25.8562 14.0161C26.2758 14.1921 26.6561 14.4501 26.9747 14.775L24.531 13.75ZM22.081 14.7875L21.8563 14.5704M22.081 14.7875L21.8563 14.5704M24.5307 12.8125L24.5309 12.8125C25.1108 12.8127 25.6849 12.9283 26.2196 13.1526C26.7544 13.3769 27.2391 13.7054 27.6456 14.119C28.4745 14.9629 28.9389 16.0984 28.9389 17.2813C28.9389 18.4639 28.4746 19.5993 27.646 20.4431C27.6458 20.4432 27.6457 20.4434 27.6456 20.4435L20.4997 27.6802L13.3539 20.4435C13.3538 20.4434 13.3537 20.4433 13.3536 20.4432C12.5249 19.5994 12.0605 18.464 12.0605 17.2813C12.0605 16.0985 12.5249 14.9629 13.3538 14.1191C13.7604 13.7058 14.2452 13.3774 14.7799 13.1533C15.3147 12.9292 15.8887 12.8138 16.4685 12.8138C17.0483 12.8138 17.6223 12.9292 18.1571 13.1533C18.6918 13.3774 19.1766 13.7058 19.5832 14.1191L19.584 14.12L20.2778 14.82L20.4997 15.0439L20.7217 14.82L21.4155 14.12L21.4166 14.1188C21.8226 13.7047 22.3072 13.3759 22.8419 13.1516C23.3767 12.9273 23.9508 12.812 24.5307 12.8125Z" fill="#BDBDBD" stroke="#252B42" stroke-width="0.625"/>
<path d="M50.5 20C50.5 8.95431 59.4543 0 70.5 0C81.5457 0 90.5 8.95431 90.5 20C90.5 31.0457 81.5457 40 70.5 40C59.4543 40 50.5 31.0457 50.5 20Z" fill="white"/>
<g clip-path="url(#clip1_2636_2811)">
<path d="M60.5 11.6333C60.5 11.4654 60.5667 11.3043 60.6855 11.1855C60.8043 11.0667 60.9654 11 61.1334 11H63.0334C63.1747 11 63.3119 11.0473 63.4232 11.1343C63.5345 11.2213 63.6136 11.343 63.6478 11.4801L64.1608 13.5333H78.8672C78.9602 13.5334 79.0521 13.554 79.1362 13.5936C79.2204 13.6331 79.2948 13.6908 79.3541 13.7624C79.4135 13.8339 79.4564 13.9177 79.4797 14.0077C79.5031 14.0977 79.5063 14.1918 79.4892 14.2832L77.5891 24.4165C77.562 24.5617 77.4849 24.6927 77.3714 24.7871C77.2578 24.8815 77.1148 24.9332 76.9672 24.9333H65.5668C65.4192 24.9332 65.2762 24.8815 65.1626 24.7871C65.0491 24.6927 64.972 24.5617 64.9449 24.4165L63.0461 14.3022L62.5394 12.2667H61.1334C60.9654 12.2667 60.8043 12.1999 60.6855 12.0812C60.5667 11.9624 60.5 11.8013 60.5 11.6333ZM64.4293 14.8L66.0925 23.6667H76.4415L78.1047 14.8H64.4293ZM66.8335 24.9333C66.1616 24.9333 65.5172 25.2002 65.0421 25.6753C64.567 26.1504 64.3001 26.7948 64.3001 27.4667C64.3001 28.1385 64.567 28.7829 65.0421 29.258C65.5172 29.7331 66.1616 30 66.8335 30C67.5054 30 68.1498 29.7331 68.6249 29.258C69.1 28.7829 69.3669 28.1385 69.3669 27.4667C69.3669 26.7948 69.1 26.1504 68.6249 25.6753C68.1498 25.2002 67.5054 24.9333 66.8335 24.9333ZM75.7005 24.9333C75.0286 24.9333 74.3842 25.2002 73.9091 25.6753C73.434 26.1504 73.1671 26.7948 73.1671 27.4667C73.1671 28.1385 73.434 28.7829 73.9091 29.258C74.3842 29.7331 75.0286 30 75.7005 30C76.3724 30 77.0168 29.7331 77.4919 29.258C77.967 28.7829 78.2339 28.1385 78.2339 27.4667C78.2339 26.7948 77.967 26.1504 77.4919 25.6753C77.0168 25.2002 76.3724 24.9333 75.7005 24.9333ZM66.8335 26.2C67.1695 26.2 67.4917 26.3335 67.7292 26.571C67.9668 26.8085 68.1002 27.1307 68.1002 27.4667C68.1002 27.8026 67.9668 28.1248 67.7292 28.3623C67.4917 28.5999 67.1695 28.7333 66.8335 28.7333C66.4976 28.7333 66.1754 28.5999 65.9378 28.3623C65.7003 28.1248 65.5668 27.8026 65.5668 27.4667C65.5668 27.1307 65.7003 26.8085 65.9378 26.571C66.1754 26.3335 66.4976 26.2 66.8335 26.2ZM75.7005 26.2C76.0364 26.2 76.3586 26.3335 76.5962 26.571C76.8337 26.8085 76.9672 27.1307 76.9672 27.4667C76.9672 27.8026 76.8337 28.1248 76.5962 28.3623C76.3586 28.5999 76.0364 28.7333 75.7005 28.7333C75.3645 28.7333 75.0423 28.5999 74.8048 28.3623C74.5672 28.1248 74.4338 27.8026 74.4338 27.4667C74.4338 27.1307 74.5672 26.8085 74.8048 26.571C75.0423 26.3335 75.3645 26.2 75.7005 26.2Z" fill="#252B42"/>
</g>
<path d="M100.5 20C100.5 8.95431 109.454 0 120.5 0C131.546 0 140.5 8.95431 140.5 20C140.5 31.0457 131.546 40 120.5 40C109.454 40 100.5 31.0457 100.5 20Z" fill="white"/>
<path d="M123 20C123 20.663 122.737 21.2989 122.268 21.7678C121.799 22.2366 121.163 22.5 120.5 22.5C119.837 22.5 119.201 22.2366 118.732 21.7678C118.263 21.2989 118 20.663 118 20C118 19.337 118.263 18.7011 118.732 18.2322C119.201 17.7634 119.837 17.5 120.5 17.5C121.163 17.5 121.799 17.7634 122.268 18.2322C122.737 18.7011 123 19.337 123 20Z" fill="black"/>
<path d="M112.5 20C112.5 20 115.5 14.5 120.5 14.5C125.5 14.5 128.5 20 128.5 20C128.5 20 125.5 25.5 120.5 25.5C115.5 25.5 112.5 20 112.5 20ZM120.5 23.5C121.428 23.5 122.318 23.1313 122.975 22.4749C123.631 21.8185 124 20.9283 124 20C124 19.0717 123.631 18.1815 122.975 17.5251C122.318 16.8687 121.428 16.5 120.5 16.5C119.572 16.5 118.682 16.8687 118.025 17.5251C117.369 18.1815 117 19.0717 117 20C117 20.9283 117.369 21.8185 118.025 22.4749C118.682 23.1313 119.572 23.5 120.5 23.5Z" fill="black"/>
</g>
<defs>
<clipPath id="clip0_2636_2811">
<rect width="140" height="40" fill="white" transform="translate(0.5)"/>
</clipPath>
<clipPath id="clip1_2636_2811">
<rect width="20" height="20" fill="white" transform="translate(60.5 10)"/>
</clipPath>
</defs>
</svg>
