<svg width="25" height="24" viewBox="0 0 25 24" fill="none" xmlns="http://www.w3.org/2000/svg">
<g clip-path="url(#clip0_2636_3063)">
<path d="M19.3478 12.3517C19.2365 12.2402 19.1043 12.1517 18.9587 12.0913C18.8131 12.031 18.657 11.9999 18.4995 11.9999C18.3419 11.9999 18.1858 12.031 18.0402 12.0913C17.8946 12.1517 17.7624 12.2402 17.6511 12.3517L15.7383 14.2645C14.8515 14.0005 13.1967 13.4005 12.1479 12.3517C11.0991 11.3029 10.4991 9.64814 10.2351 8.76135L12.1479 6.84857C12.2594 6.73723 12.3479 6.60498 12.4083 6.45941C12.4687 6.31383 12.4998 6.15778 12.4998 6.00018C12.4998 5.84258 12.4687 5.68653 12.4083 5.54095C12.3479 5.39538 12.2594 5.26313 12.1479 5.15179L7.34796 0.351838C7.23662 0.240304 7.10438 0.151819 6.9588 0.0914472C6.81322 0.031075 6.65717 0 6.49957 0C6.34197 0 6.18592 0.031075 6.04034 0.0914472C5.89477 0.151819 5.76252 0.240304 5.65118 0.351838L2.39681 3.60621C1.94082 4.0622 1.68402 4.68859 1.69362 5.32819C1.72122 7.03697 2.17361 12.9721 6.85117 17.6497C11.5287 22.3272 17.4639 22.7784 19.1738 22.8072H19.2074C19.841 22.8072 20.4398 22.5576 20.8934 22.104L24.1478 18.8497C24.2593 18.7383 24.3478 18.6061 24.4082 18.4605C24.4686 18.3149 24.4996 18.1589 24.4996 18.0013C24.4996 17.8437 24.4686 17.6876 24.4082 17.542C24.3478 17.3965 24.2593 17.2642 24.1478 17.1529L19.3478 12.3517ZM19.1954 20.406C17.6979 20.3808 12.5739 19.9788 8.54795 15.9517C4.50879 11.9125 4.11759 6.77057 4.0936 5.30299L6.49957 2.89701L9.60274 6.00018L8.05116 7.55177C7.91011 7.6927 7.80641 7.86657 7.74942 8.05764C7.69243 8.24872 7.68396 8.45098 7.72476 8.64615C7.75356 8.78415 8.45795 12.0565 10.4499 14.0485C12.4419 16.0405 15.7143 16.7449 15.8523 16.7737C16.0473 16.8156 16.2498 16.8078 16.441 16.751C16.6323 16.6942 16.8062 16.5901 16.9467 16.4485L18.4995 14.8969L21.6026 18.0001L19.1954 20.406Z" fill="#96BB7C"/>
</g>
<defs>
<clipPath id="clip0_2636_3063">
<rect width="24" height="24" fill="white" transform="translate(0.5)"/>
</clipPath>
</defs>
</svg>
