<svg width="140" height="20" viewBox="0 0 140 20" fill="none" xmlns="http://www.w3.org/2000/svg">
<path d="M6.224 19.264C5.344 19.264 4.528 19.192 3.776 19.048C3.04 18.904 2.264 18.712 1.448 18.472C0.92 18.312 0.536 18.224 0.296 18.208L0.512 13.72H2.744L3.344 16.792C3.52 17 3.84 17.184 4.304 17.344C4.784 17.504 5.352 17.584 6.008 17.584C6.984 17.584 7.712 17.368 8.192 16.936C8.688 16.504 8.936 15.912 8.936 15.16C8.936 14.632 8.776 14.176 8.456 13.792C8.152 13.392 7.72 13.032 7.16 12.712C6.616 12.376 5.864 11.992 4.904 11.56C3.64 10.984 2.568 10.256 1.688 9.376C0.824 8.48 0.392 7.304 0.392 5.848C0.392 4.952 0.624 4.136 1.088 3.4C1.552 2.664 2.256 2.072 3.2 1.624C4.144 1.176 5.32 0.951999 6.728 0.951999C7.576 0.951999 8.312 1.008 8.936 1.12C9.576 1.232 10.256 1.384 10.976 1.576C11.36 1.704 11.656 1.776 11.864 1.792L11.72 6.064H9.536L8.984 3.112C8.872 2.968 8.616 2.84 8.216 2.728C7.832 2.6 7.4 2.536 6.92 2.536C6.04 2.536 5.376 2.744 4.928 3.16C4.496 3.576 4.28 4.112 4.28 4.768C4.28 5.344 4.464 5.848 4.832 6.28C5.2 6.712 5.64 7.08 6.152 7.384C6.68 7.672 7.48 8.08 8.552 8.608C9.4 9.024 10.136 9.448 10.76 9.88C11.4 10.296 11.944 10.84 12.392 11.512C12.84 12.184 13.064 12.968 13.064 13.864C13.064 14.744 12.848 15.592 12.416 16.408C12 17.224 11.28 17.904 10.256 18.448C9.232 18.992 7.888 19.264 6.224 19.264ZM14.805 17.416L16.077 17.2V8.176L14.661 7.744V5.872L19.029 5.344L19.221 5.44L19.701 6.112V7.312C20.213 6.784 20.965 6.336 21.957 5.968C22.949 5.584 23.797 5.392 24.501 5.392C25.365 5.392 26.061 5.536 26.589 5.824C27.133 6.112 27.541 6.56 27.813 7.168C28.357 6.656 29.037 6.232 29.853 5.896C30.685 5.56 31.525 5.392 32.373 5.392C33.781 5.392 34.789 5.8 35.397 6.616C36.021 7.432 36.333 8.768 36.333 10.624V17.2L37.773 17.416V19H31.269V17.416L32.349 17.2V10.72C32.349 9.568 32.213 8.768 31.941 8.32C31.685 7.872 31.205 7.648 30.501 7.648C29.765 7.648 28.997 7.96 28.197 8.584C28.293 9.176 28.341 9.856 28.341 10.624V17.2L29.685 17.416V19H23.133V17.416L24.333 17.2V10.648C24.333 9.512 24.205 8.728 23.949 8.296C23.709 7.864 23.245 7.648 22.557 7.648C22.109 7.648 21.661 7.752 21.213 7.96C20.781 8.152 20.405 8.392 20.085 8.68V17.2L21.381 17.416V19H14.805V17.416ZM39.0829 15.16C39.0829 13.752 39.7949 12.672 41.2189 11.92C42.6589 11.168 44.5469 10.784 46.8829 10.768V10.288C46.8829 9.712 46.8189 9.256 46.6909 8.92C46.5629 8.584 46.3309 8.336 45.9949 8.176C45.6589 8 45.1629 7.912 44.5069 7.912C43.7229 7.912 43.0189 8.008 42.3949 8.2C41.7869 8.376 41.1469 8.616 40.4749 8.92L39.6589 7.192C39.9149 6.984 40.3309 6.736 40.9069 6.448C41.4829 6.144 42.1709 5.888 42.9709 5.68C43.7869 5.456 44.6349 5.344 45.5149 5.344C46.7949 5.344 47.7949 5.512 48.5149 5.848C49.2509 6.184 49.7709 6.704 50.0749 7.408C50.3949 8.112 50.5549 9.072 50.5549 10.288V17.416H51.8029V18.928C51.4349 19.008 50.9229 19.088 50.2669 19.168C49.6109 19.248 49.0509 19.288 48.5869 19.288C47.9789 19.288 47.5709 19.2 47.3629 19.024C47.1709 18.848 47.0749 18.496 47.0749 17.968V17.416C46.6749 17.896 46.1389 18.328 45.4669 18.712C44.7949 19.08 44.0189 19.264 43.1389 19.264C42.3869 19.264 41.6989 19.104 41.0749 18.784C40.4669 18.448 39.9789 17.976 39.6109 17.368C39.2589 16.744 39.0829 16.008 39.0829 15.16ZM45.0109 17.056C45.2989 17.056 45.6189 16.976 45.9709 16.816C46.3229 16.64 46.6269 16.432 46.8829 16.192V12.376C45.6349 12.376 44.7069 12.6 44.0989 13.048C43.5069 13.496 43.2109 14.072 43.2109 14.776C43.2109 15.496 43.3709 16.056 43.6909 16.456C44.0109 16.856 44.4509 17.056 45.0109 17.056ZM53.2304 17.416L54.6944 17.2V8.176L53.2784 7.744V5.872L57.2624 5.344H57.3344L58.0064 5.848V6.424L57.9344 8.416H58.0064C58.1184 8.048 58.3744 7.624 58.7744 7.144C59.1744 6.648 59.6784 6.224 60.2864 5.872C60.9104 5.504 61.5824 5.32 62.3024 5.32C62.7184 5.32 63.0384 5.376 63.2624 5.488V9.664C63.0064 9.472 62.7264 9.32 62.4224 9.208C62.1344 9.096 61.7584 9.04 61.2944 9.04C60.7184 9.04 60.1984 9.12 59.7344 9.28C59.2704 9.424 58.9024 9.592 58.6304 9.784V17.2L61.2704 17.44V19H53.2304V17.416ZM68.8937 19.216C67.8377 19.216 67.0537 18.976 66.5417 18.496C66.0457 18 65.7977 17.24 65.7977 16.216V7.672H64.3337V6.28L64.8137 6.088C65.1977 5.96 65.5337 5.824 65.8217 5.68C66.1417 5.376 66.3977 4.976 66.5897 4.48C66.8297 3.904 67.0937 3.096 67.3817 2.056H69.6137L69.7577 5.656H73.1897V7.672H69.8057V14.032C69.8057 14.912 69.8297 15.528 69.8777 15.88C69.9257 16.232 70.0137 16.464 70.1417 16.576C70.2857 16.672 70.5417 16.72 70.9097 16.72C71.6617 16.72 72.3737 16.592 73.0457 16.336L73.5497 17.848C73.1017 18.216 72.4377 18.536 71.5577 18.808C70.6777 19.08 69.7897 19.216 68.8937 19.216ZM86.7459 19.264C85.8659 19.264 85.0499 19.192 84.2979 19.048C83.5619 18.904 82.7859 18.712 81.9699 18.472C81.4419 18.312 81.0579 18.224 80.8179 18.208L81.0339 13.72H83.2659L83.8659 16.792C84.0419 17 84.3619 17.184 84.8259 17.344C85.3059 17.504 85.8739 17.584 86.5299 17.584C87.5059 17.584 88.2339 17.368 88.7139 16.936C89.2099 16.504 89.4579 15.912 89.4579 15.16C89.4579 14.632 89.2979 14.176 88.9779 13.792C88.6739 13.392 88.2419 13.032 87.6819 12.712C87.1379 12.376 86.3859 11.992 85.4259 11.56C84.1619 10.984 83.0899 10.256 82.2099 9.376C81.3459 8.48 80.9139 7.304 80.9139 5.848C80.9139 4.952 81.1459 4.136 81.6099 3.4C82.0739 2.664 82.7779 2.072 83.7219 1.624C84.6659 1.176 85.8419 0.951999 87.2499 0.951999C88.0979 0.951999 88.8339 1.008 89.4579 1.12C90.0979 1.232 90.7779 1.384 91.4979 1.576C91.8819 1.704 92.1779 1.776 92.3859 1.792L92.2419 6.064H90.0579L89.5059 3.112C89.3939 2.968 89.1379 2.84 88.7379 2.728C88.3539 2.6 87.9219 2.536 87.4419 2.536C86.5619 2.536 85.8979 2.744 85.4499 3.16C85.0179 3.576 84.8019 4.112 84.8019 4.768C84.8019 5.344 84.9859 5.848 85.3539 6.28C85.7219 6.712 86.1619 7.08 86.6739 7.384C87.2019 7.672 88.0019 8.08 89.0739 8.608C89.9219 9.024 90.6579 9.448 91.2819 9.88C91.9219 10.296 92.4659 10.84 92.9139 11.512C93.3619 12.184 93.5859 12.968 93.5859 13.864C93.5859 14.744 93.3699 15.592 92.9379 16.408C92.5219 17.224 91.8019 17.904 90.7779 18.448C89.7539 18.992 88.4099 19.264 86.7459 19.264ZM99.3109 19.216C98.2549 19.216 97.4709 18.976 96.9589 18.496C96.4629 18 96.2149 17.24 96.2149 16.216V7.672H94.7509V6.28L95.2309 6.088C95.6149 5.96 95.9509 5.824 96.2389 5.68C96.5589 5.376 96.8149 4.976 97.0069 4.48C97.2469 3.904 97.5109 3.096 97.7989 2.056H100.031L100.175 5.656H103.607V7.672H100.223V14.032C100.223 14.912 100.247 15.528 100.295 15.88C100.343 16.232 100.431 16.464 100.559 16.576C100.703 16.672 100.959 16.72 101.327 16.72C102.079 16.72 102.791 16.592 103.463 16.336L103.967 17.848C103.519 18.216 102.855 18.536 101.975 18.808C101.095 19.08 100.207 19.216 99.3109 19.216ZM104.816 15.16C104.816 13.752 105.528 12.672 106.952 11.92C108.392 11.168 110.28 10.784 112.616 10.768V10.288C112.616 9.712 112.552 9.256 112.424 8.92C112.296 8.584 112.064 8.336 111.728 8.176C111.392 8 110.896 7.912 110.24 7.912C109.456 7.912 108.752 8.008 108.128 8.2C107.52 8.376 106.88 8.616 106.208 8.92L105.392 7.192C105.648 6.984 106.064 6.736 106.64 6.448C107.216 6.144 107.904 5.888 108.704 5.68C109.52 5.456 110.368 5.344 111.248 5.344C112.528 5.344 113.528 5.512 114.248 5.848C114.984 6.184 115.504 6.704 115.808 7.408C116.128 8.112 116.288 9.072 116.288 10.288V17.416H117.536V18.928C117.168 19.008 116.656 19.088 116 19.168C115.344 19.248 114.784 19.288 114.32 19.288C113.712 19.288 113.304 19.2 113.096 19.024C112.904 18.848 112.808 18.496 112.808 17.968V17.416C112.408 17.896 111.872 18.328 111.2 18.712C110.528 19.08 109.752 19.264 108.872 19.264C108.12 19.264 107.432 19.104 106.808 18.784C106.2 18.448 105.712 17.976 105.344 17.368C104.992 16.744 104.816 16.008 104.816 15.16ZM110.744 17.056C111.032 17.056 111.352 16.976 111.704 16.816C112.056 16.64 112.36 16.432 112.616 16.192V12.376C111.368 12.376 110.44 12.6 109.832 13.048C109.24 13.496 108.944 14.072 108.944 14.776C108.944 15.496 109.104 16.056 109.424 16.456C109.744 16.856 110.184 17.056 110.744 17.056ZM118.963 17.416L120.427 17.2V8.176L119.011 7.744V5.872L122.995 5.344H123.067L123.739 5.848V6.424L123.667 8.416H123.739C123.851 8.048 124.107 7.624 124.507 7.144C124.907 6.648 125.411 6.224 126.019 5.872C126.643 5.504 127.315 5.32 128.035 5.32C128.451 5.32 128.771 5.376 128.995 5.488V9.664C128.739 9.472 128.459 9.32 128.155 9.208C127.867 9.096 127.491 9.04 127.027 9.04C126.451 9.04 125.931 9.12 125.467 9.28C125.003 9.424 124.635 9.592 124.363 9.784V17.2L127.003 17.44V19H118.963V17.416ZM134.627 19.216C133.571 19.216 132.787 18.976 132.275 18.496C131.779 18 131.531 17.24 131.531 16.216V7.672H130.067V6.28L130.547 6.088C130.931 5.96 131.267 5.824 131.555 5.68C131.875 5.376 132.131 4.976 132.323 4.48C132.563 3.904 132.827 3.096 133.115 2.056H135.347L135.491 5.656H138.923V7.672H135.539V14.032C135.539 14.912 135.563 15.528 135.611 15.88C135.659 16.232 135.747 16.464 135.875 16.576C136.019 16.672 136.275 16.72 136.643 16.72C137.395 16.72 138.107 16.592 138.779 16.336L139.283 17.848C138.835 18.216 138.171 18.536 137.291 18.808C136.411 19.08 135.523 19.216 134.627 19.216Z" fill="#252B42"/>
</svg>
